<?xml version="1.0" encoding="UTF-8"?>
<svg xmlns="http://www.w3.org/2000/svg" version="1.1" viewBox="0 0 34.3 22.4">
  <defs>
    <style>
      .cls-1 {
        fill: #ffc601;
      }

      .cls-2 {
        fill: #fff;
      }

      .cls-3 {
        fill: #f9f9f9;
      }

      .cls-4 {
        fill: #f43735;
      }

      .cls-5 {
        fill: none;
        stroke: #94a3b8;
        stroke-linecap: round;
        stroke-linejoin: round;
        stroke-width: .8px;
      }
    </style>
  </defs>
  <!-- Generator: Adobe Illustrator 28.7.1, SVG Export Plug-In . SVG Version: 1.2.0 Build 142)  -->
  <g>
    <g id="Layer_1">
      <g id="Icons">
        <g>
          <path class="cls-3" d="M31.7,22.1H2.6c-1.2,0-2.2-1-2.2-2.2V2.6C.4,1.4,1.4.4,2.6.4h29.1c1.2,0,2.2,1,2.2,2.2v17.3c0,1.2-1,2.2-2.2,2.2Z"/>
          <circle class="cls-1" cx="22" cy="11.3" r="7.1"/>
          <circle class="cls-4" cx="12.4" cy="11.3" r="7.1"/>
          <path class="cls-5" d="M31.7,22.1H2.6c-1.2,0-2.2-1-2.2-2.2V2.6C.4,1.4,1.4.4,2.6.4h29.1c1.2,0,2.2,1,2.2,2.2v17.3c0,1.2-1,2.2-2.2,2.2Z"/>
          <path class="cls-2" d="M8.1,10.3c-.1.8-.3,1.5-.4,2.3h-.7c.2-1.1.4-2.1.5-3.2h1v1.9s0,0,0,0c.1-.4.2-.7.4-1.1,0-.2.2-.5.3-.7,0,0,0-.1.1-.1.3,0,.6,0,1,0-.2,1.1-.4,2.1-.5,3.2h-.7c.1-.8.2-1.5.4-2.3,0,0,0,0,0,0,0,0,0,.1,0,.2-.2.6-.5,1.3-.7,1.9,0,.1,0,.2-.2.1,0,0-.2,0-.3,0,0-.8,0-1.5,0-2.3,0,0,0,0,0,0Z"/>
          <path class="cls-2" d="M26.5,10.3c0-.3,0-.6.1-.9h.7c0,.3-.1.6-.2,1-.1.7-.2,1.4-.3,2.1,0,.1,0,.1-.2.1-.2,0-.3,0-.5,0v-.2c-.1,0-.2.1-.3.2-.4.2-.9,0-1-.5-.2-.6,0-1.2.3-1.8.4-.5.9-.5,1.4,0ZM26.3,11.1c0,0,0-.2,0-.3,0-.3-.3-.4-.6-.2,0,0-.2.2-.2.3-.1.2-.1.5-.1.7,0,.2,0,.3.3.4.2,0,.3,0,.5-.2.1-.2.2-.4.2-.7Z"/>
          <path class="cls-2" d="M11.6,11c0-.3,0-.4-.2-.4-.3,0-.6,0-.9,0,0,0,0-.2,0-.3,0-.3,0-.3.3-.4.3,0,.5,0,.8,0,.4,0,.7.4.6.8,0,.6-.2,1.2-.2,1.7,0,0,0,.1,0,.1-.2,0-.3,0-.5,0v-.2c-.2,0-.3.2-.5.2-.4.1-.8-.1-.8-.6,0-.7.3-1.1,1-1.1.1,0,.3,0,.4,0ZM11.5,11.5c-.2,0-.5,0-.6,0-.2.1-.2.4-.1.5.1.1.3.1.5,0,.2-.2.2-.3.2-.6Z"/>
          <path class="cls-2" d="M22.7,11c0-.3,0-.4-.3-.4-.3,0-.6,0-.9,0,0-.1,0-.3,0-.5,0,0,0,0,0,0,.3-.1.7-.2,1,0,.4,0,.7.4.6.8,0,.6-.2,1.2-.3,1.8h-.6v-.2c0,0-.1,0-.2.1-.3.2-.6.2-.9,0-.3-.2-.3-.5-.3-.8,0-.5.4-.8,1-.9.1,0,.3,0,.4,0ZM22.6,11.5c-.2,0-.4,0-.6,0-.1,0-.2.2-.2.4,0,0,0,.2.2.2.1,0,.3,0,.4,0,.1-.2.2-.3.2-.6Z"/>
          <path class="cls-2" d="M16.1,11.6c0,.3,0,.4.3.5.3,0,.5,0,.8,0,0,0,.1,0,.2,0,0,.2,0,.4-.1.6,0,0,0,0,0,0-.3,0-.7.1-1,0-.4-.1-.7-.4-.7-.8,0-.6,0-1.1.4-1.5.2-.3.5-.4.9-.4.6,0,.9.5.8,1.2q0,.5-.5.5c-.3,0-.6,0-.9,0,0,0,0,0,0,0ZM16.1,11c.2,0,.5,0,.7,0,0,0,0,0,0,0,0-.2,0-.4-.3-.4-.3,0-.4.2-.5.5Z"/>
          <path class="cls-2" d="M21.4,9.5c0,.2,0,.5-.1.7-.1,0-.3-.1-.4-.1-.3,0-.7,0-.8.3-.2.4-.3.8-.2,1.2,0,.4.4.6.8.5.1,0,.3,0,.4-.1,0,.2,0,.4-.1.7,0,0,0,0,0,0-.2,0-.5,0-.7,0-.5,0-.9-.4-1-.9-.1-.5,0-1.1.2-1.6.4-.9,1.2-1.1,2.1-.8Z"/>
          <path class="cls-2" d="M14.1,10c0,.2,0,.4,0,.6-.1,0-.3,0-.4,0-.3,0-.4,0-.4.2,0,.2.1.3.3.3.4.2.6.4.5,1,0,.3-.3.5-.5.5-.4.1-.8,0-1.2,0,0-.2,0-.4,0-.6.2,0,.5,0,.7,0,0,0,.1,0,.2,0,.1,0,.2-.2,0-.3,0,0-.2-.1-.3-.2-.4-.2-.5-.5-.4-.9,0-.4.3-.6.7-.7.3,0,.6,0,.9,0Z"/>
          <path class="cls-2" d="M14.5,9.6h.7c0,.1,0,.2,0,.4.1,0,.2,0,.3,0,0,.2,0,.4,0,.6h-.4c0,.3,0,.5-.1.7,0,.1,0,.3,0,.4,0,.2,0,.3.3.3,0,0,0,0,.1,0,0,.2,0,.3,0,.5,0,0,0,0,0,0-.2,0-.4,0-.6,0-.2,0-.4-.2-.4-.5,0-.3,0-.6,0-.9,0-.6.2-1.1.3-1.7Z"/>
          <path class="cls-2" d="M24,12.6h-.7c.1-.9.3-1.8.4-2.6h.6c0,.1,0,.2,0,.3.2-.2.3-.4.6-.4,0,.3-.2.5-.2.8-.2,0-.3,0-.4.3,0,.4-.2.7-.2,1.1,0,.2,0,.3,0,.5Z"/>
          <path class="cls-2" d="M18.2,12.6h-.7c0-.3.1-.7.2-1,0-.5.2-1,.2-1.5,0,0,0-.1.1-.1.2,0,.3,0,.5,0,0,.1,0,.2,0,.3.2-.2.3-.4.6-.4,0,.3-.2.5-.2.8-.2,0-.3,0-.4.3,0,.4-.2.7-.2,1.1,0,.2,0,.3,0,.5Z"/>
          <path class="cls-2" d="M6,13.5h.1c0,0,0-.1,0-.2v.2Z"/>
        </g>
      </g>
    </g>
  </g>
</svg>