<?xml version="1.0" encoding="UTF-8"?>
<svg xmlns="http://www.w3.org/2000/svg" version="1.1" viewBox="0 0 34.3 22.4">
  <defs>
    <style>
      .cls-1 {
        fill: #ffc601;
      }

      .cls-2 {
        fill: #f9f9f9;
      }

      .cls-3 {
        fill: #0052cc;
      }

      .cls-4 {
        fill: none;
        stroke: #94a3b8;
        stroke-linecap: round;
        stroke-linejoin: round;
        stroke-width: .8px;
      }
    </style>
  </defs>
  <!-- Generator: Adobe Illustrator 28.7.1, SVG Export Plug-In . SVG Version: 1.2.0 Build 142)  -->
  <g>
    <g id="Layer_1">
      <g id="Icons">
        <g>
          <path class="cls-2" d="M31.7,22.1H2.6c-1.2,0-2.2-1-2.2-2.2V2.6C.4,1.4,1.4.4,2.6.4h29.1c1.2,0,2.2,1,2.2,2.2v17.3c0,1.2-1,2.2-2.2,2.2Z"/>
          <path class="cls-3" d="M9.6,12.5c0,0,0,.1,0,.2.7-1.8,1.4-3.6,2.1-5.4h2.2c0,0,0,.2-.1.3-1.1,2.5-2.1,5.1-3.2,7.6,0,0,0,.1-.2.1-.6,0-1.3,0-1.9,0,0,0-.1,0-.2-.1-.5-2.1-1.1-4.2-1.6-6.3"/>
          <path class="cls-1" d="M6.8,8.9c0-.4-.3-.6-.6-.8-.6-.3-1.2-.4-1.8-.6,0,0,0,0,0,0h0c0-.2.1-.2.3-.2,1.1,0,2.2,0,3.3,0,.5,0,.9.3,1,.8.3,1.5.6,3,.8,4.4"/>
          <path class="cls-3" d="M21.5,7.1c.2,0,.5,0,.7.1.2,0,.5.1.7.2,0,0,.1,0,.2,0-.1.6-.2,1.1-.4,1.7-.3,0-.5-.2-.8-.3-.5-.1-1-.2-1.5,0-.2,0-.4.1-.5.3-.2.2-.2.5,0,.7.2.1.3.3.5.4.4.2.7.4,1.1.6.5.3.9.7,1,1.3.2.8,0,1.9-.9,2.6-.5.4-1.1.6-1.8.7-1,.1-2,0-3-.3,0,0-.1,0-.2,0,.1-.6.2-1.2.4-1.8,0,0,.2,0,.2,0,.6.3,1.2.4,1.9.4.3,0,.6,0,.9-.2.5-.3.6-.8.1-1.1-.2-.2-.5-.3-.7-.4-.4-.2-.8-.4-1.2-.7-1-.8-.9-2-.3-2.8.4-.7,1.1-1,1.9-1.2.2,0,.5,0,.7-.1,0,0,0,0,.1,0,.3,0,.5,0,.8,0Z"/>
          <path class="cls-3" d="M30,15.3h-1.9c0-.3-.1-.6-.2-.9,0-.3,0-.3-.4-.3-.7,0-1.5,0-2.2,0-.1,0-.2,0-.2.1-.1.3-.2.6-.4,1,0,0,0,.1-.1.1-.7,0-1.4,0-2.1,0,0,0,0,0,0-.1,1-2.4,2-4.9,3.1-7.3.2-.4.5-.6.9-.6.6,0,1.1,0,1.7,0,.6,2.7,1.1,5.4,1.7,8ZM27.5,12.4c-.2-1-.4-2-.6-3,0,0,0,0,0,0-.4,1-.7,2-1.1,3h1.7Z"/>
          <path class="cls-3" d="M13.2,15.3c.6-2.7,1.2-5.4,1.7-8h2.1c0,.3-.1.5-.2.8-.5,2.4-1,4.7-1.5,7.1,0,.2,0,.2-.2.2-.6,0-1.1,0-1.7,0,0,0-.1,0-.2,0Z"/>
          <path class="cls-4" d="M31.7,22.1H2.6c-1.2,0-2.2-1-2.2-2.2V2.6C.4,1.4,1.4.4,2.6.4h29.1c1.2,0,2.2,1,2.2,2.2v17.3c0,1.2-1,2.2-2.2,2.2Z"/>
        </g>
      </g>
    </g>
  </g>
</svg>